# xmcd
#
# Track frame offsets: 
#        150
#        19304
#        35126
#        52601
#        68459
#        85284
#        98421
#        113306
#        128581
#
# Disc length: 1881 seconds
#
# Revision: 0
# Processed by: cddbd v1.5.2PL0 Copyright (c) Steve Scherf et al.
# Submitted via: ExactAudioCopy v1.0b1
#
DISCID=5d075709
DTITLE=Trent Jeffcoat - The Demo Sessions '07
DYEAR=2007
DGENRE=Country
TTITLE0=085429
TTITLE1=I've Reached Mine
TTITLE2=Outta' My Hands
TTITLE3=If She'd Fall Back In Love
TTITLE4=Just Look Around
TTITLE5=I Had A Hundred Dollars
TTITLE6=Daisy Dukes
TTITLE7=The Way That She Loves Me
TTITLE8=Her Dear John
EXTD=
EXTT0=
EXTT1=
EXTT2=
EXTT3=
EXTT4=
EXTT5=
EXTT6=
EXTT7=
EXTT8=
PLAYORDER=
